<?xml version="1.0" standalone="no"?>
<!DOCTYPE svg PUBLIC "-//W3C//DTD SVG 1.1//EN" "http://www.w3.org/Graphics/SVG/1.1/DTD/svg11.dtd" >
<svg xmlns="http://www.w3.org/2000/svg">
<metadata></metadata>
<defs>
<font id="untitledregular" horiz-adv-x="2048" >
<font-face units-per-em="2048" ascent="1638" descent="-410" />
<missing-glyph horiz-adv-x="512" />
<glyph horiz-adv-x="0" />
<glyph unicode="&#xd;" horiz-adv-x="512" />
<glyph horiz-adv-x="0" />
<glyph horiz-adv-x="0" />
<glyph unicode=" "  horiz-adv-x="512" />
<glyph unicode="&#x09;" horiz-adv-x="512" />
<glyph unicode="&#xa0;" horiz-adv-x="512" />
<glyph unicode="A" horiz-adv-x="2691" d="M0 -231v1753q0 47 35 81.5t82 34.5h233q49 0 84 -34.5t35 -81.5v-1463h1755v1463q0 47 34 81.5t83 34.5h233q49 0 83 -34.5t34 -81.5v-1753q0 -74 -51 -125.5t-123 -51.5h-2341q-74 0 -125 51.5t-51 125.5zM643 233v1055h1405v-1055h-1405z" />
<glyph unicode="B" horiz-adv-x="3178" d="M0 -231v1753q0 47 35 81.5t82 34.5h233q49 0 84 -34.5t35 -81.5v-1463h2458v1346q0 47 33.5 82t82.5 35h135v-1930h-2828q-6 0 -13 1t-15 1t-14.5 -1t-14.5 -1h-117q-74 0 -125 51.5t-51 125.5zM643 233v1055h2107v-1055h-2107z" />
<glyph unicode="C" horiz-adv-x="3178" d="M0 -408v1930h137q47 0 82 -35t35 -82v-1346h2458v1463q0 47 33.5 81.5t82.5 34.5h234q49 0 82.5 -34.5t33.5 -81.5v-1753q0 -74 -51 -125.5t-123 -51.5h-116q-8 0 -15.5 1t-15.5 1q-6 0 -13.5 -1t-15.5 -1h-2828zM430 233v1055h2105v-1055h-2105z" />
<glyph unicode="P" />
<glyph unicode="a" horiz-adv-x="2191" d="M0 506v74h438v-74h-438zM121 33h1923v-90h-1923v90zM121 -315h1923v-93h-1923v93zM295 1294l51 52l307 -306l-53 -51zM549 543q0 113 43 212t116.5 174t173 118t214.5 43q113 0 213 -43t175 -118t118 -174.5t43 -211.5q0 -70 -17.5 -133.5t-46.5 -122.5h-971 q-29 59 -45 122.5t-16 133.5zM621 543q0 -84 32 -166h887q14 39 22.5 80t8.5 86q0 98 -38 184t-102.5 150.5t-150.5 102.5t-184 38t-185.5 -38t-152 -102.5t-101 -150.5t-36.5 -184zM1059 1200v438h74v-438h-74zM1540 1040l305 306l51 -52l-305 -305zM1753 506v74h438v-74 h-438z" />
<glyph unicode="b" horiz-adv-x="1214" d="M0 -305v1841q0 43 29.5 72.5t72.5 29.5h1008q43 0 73.5 -29.5t30.5 -72.5v-1841q0 -43 -30.5 -73t-73.5 -30h-1008q-43 0 -72.5 30t-29.5 73zM76 45v-350q0 -27 26 -27h1008q29 0 29 27v350h-1063zM76 121h1063v1212h-1063v-1212zM76 1409h1063v127q0 27 -29 27h-1008 q-27 0 -26 -27v-127zM494 -104h227v-76h-227v76z" />
<glyph unicode="c" horiz-adv-x="2111" d="M0 -408v1569h2111v-1569h-2111zM78 -330h1956v1413h-1956v-1413zM156 1321v80h1798v-80h-1798zM313 1561v77h1485v-77h-1485z" />
<glyph unicode="d" d="M0 272h682v-680h-682v680zM0 502v225h455v-225h-455zM0 956v682h682v-682h-682zM227 45v-225h228v225h-228zM227 1184h228v227h-228v-227zM682 502v225h229v457h226v-533h-226v-149h-229zM911 45v227h226v230h2v225h227v-680h-227v-2h-228zM911 -166h228v-242h-228v242z M911 1411v227h226v-227h-226zM1366 45h227v-225h76v151h143v90h9v211h-228v455h455v-225h-227v-230h227v-528h-227v-152h-228v228h-227v225zM1366 956v682h682v-682h-682zM1593 1184h228v227h-228v-227z" />
<glyph unicode="e" horiz-adv-x="2592" d="M0 -68v1043q0 70 49 118t117 48h104q43 0 79 -19.5t59 -52.5v51v269q0 10 1 17t1 17v25q0 39 16 73.5t44 60.5t65.5 41t80.5 15h748h12h701q37 0 62.5 -36.5t25.5 -88.5v-487q16 49 60 82t99 33h103q70 0 118 -49.5t48 -118.5v-12v-3v-1028v-47q0 -70 -48 -119t-118 -49 h-103q-14 0 -34 4v-4h-92v-123h-347v123h-1038v-123h-346v123h-193h-2h-102q-70 0 -119 49.5t-49 118.5v23q-2 8 -2 26zM1057 946l76 -633h327l76 633v344h-479v-344zM1120 -59h363v262h-363v-262z" />
<glyph unicode="f" horiz-adv-x="1806" d="M0 494q0 186 70.5 351t193.5 287.5t287 193.5t352 71v205q0 29 17 36q5 2 10 2q15 0 33 -14l458 -336q23 -18 23 -43.5t-23 -42.5l-458 -336q-25 -18 -42.5 -11t-17.5 36v264q-137 0 -258 -52t-210 -142.5t-141 -211t-52 -257.5t52 -258t141 -210t210 -140.5t258 -51.5 t258 51.5t211 140.5t142.5 209.5t52.5 258.5h239q0 -186 -70.5 -350t-193.5 -287t-287.5 -194t-351.5 -71q-188 0 -352 71t-287 194t-193.5 286.5t-70.5 350.5z" />
<glyph unicode="g" horiz-adv-x="2457" d="M0 -244v1473q0 68 48 116t116 48h244v-84q4 -70 30 -123q12 -23 29.5 -45.5t43.5 -40t61.5 -27.5t82.5 -10q68 4 121 31q47 23 85 73t38 144v82h655l2 -84q4 -70 31 -123q23 -47 73 -85t142 -38q70 4 123 31q47 23 85 73t38 144v82h246q68 0 116 -48.5t48 -115.5v-1473 q0 -68 -48.5 -116t-115.5 -48h-2130q-68 0 -116 48.5t-48 115.5zM164 0v-244h409v244h-409zM164 164h409v246h-409v-246zM164 573h409v246h-409v-246zM492 1311v164q0 68 48 115.5t115 47.5q68 0 116 -48t48 -115v-164q0 -68 -48 -116t-116 -48t-115.5 48t-47.5 116zM737 0 v-244h410v244h-410zM737 164h410v246h-410v-246zM737 573h410v246h-410v-246zM1311 0v-244h409v244h-409zM1311 164h409v246h-409v-246zM1311 573h409v246h-409v-246zM1638 1311v164q0 68 48.5 115.5t115.5 47.5q68 0 116 -48t48 -115v-164q0 -68 -48 -116t-116 -48t-116 48 t-48 116zM1884 0v-244h410v244h-410zM1884 164h410v246h-410v-246zM1884 573h410v246h-410v-246z" />
<glyph unicode="h" horiz-adv-x="2910" d="M0 332q0 37 37 51q72 29 116 91.5t44 139.5q0 78 -44 140.5t-116 91.5q-37 14 -37 51v686q0 23 16.5 39t38.5 16h2800q23 0 39 -16t16 -39v-684q0 -39 -37 -53q-72 -27 -116.5 -90.5t-44.5 -141.5t45 -141t116 -90q37 -14 37 -51v-684q0 -23 -16 -39t-39 -17h-2800 q-23 0 -39 17q-16 16 -16 39v684zM111 295v-592h2689v592q-92 45 -145.5 131t-53.5 188q0 104 53 189.5t146 130.5v594h-416v-185q0 -23 -16.5 -38t-38.5 -15q-23 0 -39.5 15.5t-16.5 37.5v185h-2162v-596q90 -45 143 -130t53 -188q0 -102 -53 -187t-143 -132zM2273 -98v204 q0 23 16.5 39.5t39.5 16.5t39 -16.5t16 -39.5v-204q0 -23 -16.5 -39.5t-38.5 -16.5q-23 0 -39.5 16.5t-16.5 39.5zM2273 381v207q0 23 16.5 39t39.5 16t39 -16.5t16 -38.5v-207q0 -23 -16.5 -39t-38.5 -16q-23 0 -39.5 16t-16.5 39zM2273 862v207q0 23 16.5 39t39.5 16 t39 -16t16 -39v-207q0 -23 -16.5 -38t-38.5 -15q-23 0 -39.5 15.5t-16.5 37.5z" />
<glyph unicode="i" horiz-adv-x="1918" d="M0 -225q0 -76 53 -129.5t129 -53.5h1555q76 0 129 53.5t53 129.5v1536q0 76 -53 129t-129 53h-129v-104h129q33 0 55.5 -23t22.5 -55v-1536q0 -33 -23 -55.5t-55 -22.5h-1555q-33 0 -55.5 22.5t-22.5 55.5v1536q0 33 23 55.5t55 22.5h123v104h-123q-76 0 -129 -53.5 t-53 -128.5v-1536zM51 985v102h1817v-102h-1817zM344 1276v301q0 27 18.5 44t43.5 17h133q25 0 42 -17t17 -44v-301q0 -27 -17.5 -44.5t-41.5 -17.5h-133q-25 0 -43.5 17.5t-18.5 44.5zM575 1389h762v104h-762v-104zM698 221l19 -20l61 61l199 -272l240 731l-41 29 l-207 -633l-166 211zM1315 1276v301q0 27 17.5 44t43.5 17h131q27 0 44.5 -17t17.5 -44v-301q0 -27 -17.5 -44.5t-44.5 -17.5h-131q-27 0 -44 17.5t-17 44.5z" />
<glyph unicode="j" horiz-adv-x="1996" d="M0 467l1118 1171h879v-929l-1120 -1117zM109 469l768 -768l1042 1040v820h-768zM1343 1206q0 45 17.5 84t47.5 67.5t69 46t84 17.5t83.5 -17.5t67.5 -46t46.5 -67.5t17.5 -84t-17.5 -85t-46.5 -68.5t-67.5 -46t-83.5 -17.5t-84 17.5t-69 46t-47.5 68.5t-17.5 85z M1421 1206q0 -59 40 -99t100 -40q57 0 98 40t41 99q0 57 -41 97t-98 40q-59 0 -99.5 -39.5t-40.5 -97.5z" />
<glyph unicode="k" horiz-adv-x="2254" d="M0 125v1311q0 86 58.5 144t144.5 58h1849q86 0 144.5 -58t58.5 -144v-1311q0 -84 -58.5 -141.5t-144.5 -57.5h-391l-248 -315q-12 -18 -37 -19h-2q-23 0 -37 19l-233 315h-901q-86 0 -144.5 57.5t-58.5 141.5zM96 125q0 -43 31 -75t76 -32h923q27 0 39 -18l211 -281 l223 283q16 16 39 16h414q45 0 76 32t31 75v1311q0 45 -31 75.5t-76 30.5h-1849q-45 0 -76 -30.5t-31 -75.5v-1311zM406 563q0 20 14 33.5t33 13.5h1345q20 0 33.5 -13t13.5 -34q0 -20 -13 -34.5t-34 -14.5h-1345q-18 0 -32.5 14.5t-14.5 34.5zM406 1069q0 20 14 33.5 t33 13.5h755q20 0 33.5 -13t13.5 -34q0 -20 -13 -34.5t-34 -14.5h-755q-18 0 -32.5 14.5t-14.5 34.5z" />
<glyph unicode="l" horiz-adv-x="1566" d="M0 -408v1129h205v352q0 117 43 219.5t116.5 179t173 121.5t212.5 45h67q113 0 212 -45t173 -121.5t117 -179t43 -219.5v-352h205v-1129h-1567zM408 721h749v317q0 80 -29.5 152t-80 124t-119 82.5t-146.5 30.5t-146.5 -30.5t-118.5 -82.5t-79.5 -124t-29.5 -152v-317z M647 301q0 -45 23.5 -80t60.5 -51l-51 -367h205l-51 367q39 16 62.5 51t23.5 80q0 59 -40 100t-98 41q-55 0 -95 -41t-40 -100z" />
<glyph unicode="m" d="M0 631q0 182 58.5 346t163 296t246.5 227t310 138q-113 -121 -177 -275.5t-64 -334.5q0 -184 69.5 -346t191.5 -284t283.5 -191.5t345.5 -69.5q182 0 341 67.5t280 186.5q-41 -172 -134 -317.5t-226.5 -253t-299 -168t-350.5 -60.5q-215 0 -404.5 82t-329.5 222.5 t-222 330t-82 404.5zM82 631q0 -199 75.5 -373t206 -304t304.5 -205t370 -75q133 0 257 35t231.5 98.5t196.5 154.5t151 202q-207 -109 -447 -109q-201 0 -378 77t-309 209t-208.5 309t-76.5 378q0 225 100 430q-109 -63 -196 -152t-148 -195.5t-95 -228.5t-34 -251z" />
<glyph unicode="n" horiz-adv-x="1855" d="M0 -408q0 123 46 231.5t126 188.5t187.5 127t230.5 47v-84q-104 0 -196.5 -39.5t-161 -109.5t-108.5 -162t-40 -199h-84zM14 864v322q0 35 26 59.5t62 24.5h109q35 0 60.5 -24.5t25.5 -59.5v-29q29 104 91.5 192.5t148.5 153t191.5 100t221.5 35.5q139 0 263 -51 t216.5 -140t145.5 -207t53 -253q0 -98 -28.5 -189t-83 -169t-130 -139.5t-167.5 -100.5q-12 -4 -17 -4q-29 0 -39 27q-6 16 0 31.5t23 23.5q82 33 147.5 87t112.5 121.5t72.5 146.5t25.5 165q0 117 -47 220.5t-127 180t-188.5 121.5t-231.5 45t-230.5 -45t-187 -121.5 t-127 -180t-47.5 -220.5q0 -129 55.5 -242.5t159.5 -195.5q14 -10 16.5 -27.5t-7.5 -32.5q-10 -14 -27.5 -15t-32.5 9q-88 68 -146.5 158t-82.5 195q-10 -25 -31.5 -40.5t-50.5 -15.5h-12v-329q0 -53 38.5 -90t94.5 -37h467q4 31 21.5 51t41.5 20h203q29 0 47 -26.5 t18 -65.5t-18 -64.5t-47 -25.5h-203q-31 0 -47 27h-483q-45 0 -85 16t-68.5 45t-46 68t-17.5 82v329h-13q-37 0 -62.5 24.5t-25.5 59.5zM1266 102v84q123 0 230.5 -47t187 -127t125.5 -188.5t46 -231.5h-83q0 106 -40 198.5t-109 162.5t-161 109.5t-196 39.5z" />
<glyph unicode="o" horiz-adv-x="2168" d="M0 856l727 139l356 643l359 -643l727 -139l-506 -537l90 -727l-670 312l-669 -312l92 727z" />
<glyph unicode="p" horiz-adv-x="1449" d="M2 1182q8 94 29.5 161.5t49.5 108.5t50 59v2l184 115q16 11 34 11q8 0 17 -2q27 -7 42 -31q4 -8 30 -56q23 -41 73 -128t144 -246q14 -23 8 -50.5t-30 -44.5q-39 -23 -74 -45q-29 -18 -60.5 -36.5t-47.5 -28.5q-29 -18 -38.5 -45t-5 -61t18.5 -70.5t31 -75.5q0 -2 16 -31 t41 -71t53.5 -91t53 -92t41.5 -70l18 -28q84 -119 138 -170q32 -30 64 -30l44 14l182 110q23 14 49.5 7t42.5 -31l242 -414h-2q10 -18 10 -38q0 -7 -1 -14q-5 -28 -32 -44q-39 -23 -74 -43q-31 -18 -61.5 -37t-46.5 -29q-8 -4 -14 -8q-29 -12 -81 -17h-24q-44 0 -100 12 q-72 17 -159 62t-184.5 130t-204 218t-214.5 326q-104 188 -160.5 344t-77.5 280q-16 90 -16 164q0 28 2 54z" />
<glyph unicode="q" horiz-adv-x="1624" d="M0 -10v1517q0 53 39 92t92 39h1362q53 0 92 -38.5t39 -92.5v-1783q0 -53 -39 -92.5t-92 -39.5h-1114q-29 0 -47.5 18.5t-18.5 47.5q0 27 18.5 46.5t47.5 19.5h1114v1783h-1362v-1517q0 -29 -19.5 -47.5t-45.5 -18.5q-29 0 -47.5 18.5t-18.5 47.5zM2 -22v10q0 14 4 26 q8 16 23.5 27.5t36.5 11.5h313q27 0 45 -19.5t18 -43.5v-332q0 -45 -41 -61q-12 -5 -22 -5q-29 0 -49 21l-312 332q-14 14 -16 33zM66 -10h313v-332zM217 -76l96 -102v102h-96zM221 379q0 -25 17.5 -42.5t42.5 -17.5h473q25 0 41 17.5t16 42.5t-16.5 42t-40.5 17h-473 q-25 0 -42.5 -17.5t-17.5 -41.5zM221 793q0 -25 17.5 -42.5t42.5 -17.5h944q25 0 42 17.5t17 42.5t-17.5 41t-41.5 16h-944q-25 0 -42.5 -16.5t-17.5 -40.5zM221 1204q0 -25 17.5 -41t42.5 -16h708q25 0 42.5 16.5t17.5 40.5q0 25 -17.5 42.5t-42.5 17.5h-708 q-25 0 -42.5 -17.5t-17.5 -42.5z" />
<glyph unicode="r" horiz-adv-x="1863" d="M0 -10v1544q0 43 30.5 73.5t73.5 30.5h924q29 0 47.5 -18t18.5 -47q0 -27 -18.5 -46.5t-47.5 -19.5h-897v-1495l268 -288h1094v792q0 27 18.5 45.5t47.5 18.5t47 -18.5t18 -45.5v-819q0 -43 -30.5 -74t-73.5 -31h-1149q-29 0 -49 21l-306 332q-16 20 -16 45zM2 -22v10 q0 14 4 26q8 16 23.5 27.5t36.5 11.5h313q27 0 45 -19.5t18 -43.5v-332q0 -45 -41 -61q-12 -5 -22 -5q-29 0 -49 21l-312 332q-14 13 -16 33zM66 -10h313v-332zM217 -76l96 -102v102h-96zM1178 940q0 29 18 47.5t45 18.5h557q29 0 47.5 -18.5t18.5 -47.5t-18.5 -47.5 t-47.5 -18.5h-557q-27 0 -45 18.5t-18 47.5zM1178 1194q0 27 18 46.5t45 19.5h557q29 0 47.5 -19.5t18.5 -46.5q0 -29 -18.5 -47.5t-47.5 -18.5h-557q-27 0 -45 18.5t-18 47.5zM1219 1559q22 15 46 15h3q26 -1 43 -24l256 -295q16 -20 16 -43v-483q0 -27 -18 -46t-47 -19 t-47.5 19t-18.5 46v459l-240 278q-15 19 -15 44q0 29 22 49zM1458 1208v6q0 23 17 41l256 295q17 23 43 24h3q25 0 46 -15q21 -19 21 -48q0 -25 -15 -45l-256 -297q-18 -22 -49 -22q-23 0 -43 16q-21 18 -23 45z" />
<glyph unicode="s" d="M0 580v69h410v-69h-410zM276 -82l285 285l49 -49l-286 -283zM276 1317l48 47l286 -285l-49 -49zM512 614q0 106 40 199.5t109.5 163.5t163 109.5t199.5 39.5t199.5 -39.5t163 -109.5t109.5 -163t40 -200q0 -106 -40 -199t-109.5 -163t-163 -110t-199.5 -40t-199.5 40 t-163 110t-109.5 163t-40 199zM580 614q0 -92 34.5 -173t95 -141t141.5 -95t173 -35t173 35t141.5 95t95 141t34.5 173t-34.5 172t-95 140.5t-141.5 95.5t-173 35t-173 -35t-141.5 -95.5t-95 -140t-34.5 -172.5zM989 0h70v-408h-70v408zM989 1229v409h70v-409h-70z M1438 1079l286 285l48 -47l-285 -287zM1440 154l47 49l285 -285l-48 -47zM1638 580v69h410v-69h-410z" />
<glyph unicode="t" d="M20 614q0 141 35 272.5t99.5 245t155.5 207t203 160t241 103t270 36.5q211 0 394.5 -80.5t318.5 -219t213 -326t78 -398.5q0 -213 -78 -398t-213 -324.5t-318.5 -219.5t-394.5 -80q-213 0 -396.5 80t-318.5 219.5t-212 324.5t-77 398zM209 612q0 -172 61.5 -321.5 t170 -262t256 -177t319.5 -64.5t319.5 64.5t256 177t170 262t61.5 321.5t-61.5 322.5t-170 262.5t-256 177.5t-319.5 65.5t-319.5 -65.5t-256 -177.5t-170 -262.5t-61.5 -322.5zM864 487v474q0 33 22.5 55t55.5 22t55.5 -22.5t22.5 -54.5v-396h235q33 0 55.5 -22.5 t22.5 -55.5t-22.5 -55t-55.5 -22h-313q-33 0 -55.5 22.5t-22.5 54.5z" />
<glyph unicode="u" horiz-adv-x="2029" d="M0 -18v1511q0 41 29.5 71.5t72.5 30.5h904q27 0 45 -18t18 -47q0 -27 -18.5 -45.5t-44.5 -18.5h-879v-1462l262 -285h1071v777q0 27 18.5 45t47.5 18q27 0 45 -18.5t18 -44.5v-801q0 -43 -29.5 -73t-72.5 -30h-1125q-27 0 -47 21l-299 326q-16 16 -16 43zM1032 1139 q0 104 39 195t106.5 159t158.5 106.5t194 38.5q104 0 195.5 -38.5t159 -106.5t106.5 -159t39 -195q0 -102 -39 -193.5t-106.5 -159t-159 -106.5t-195.5 -39q-102 0 -193.5 39t-159 106.5t-106.5 158.5t-39 194zM1159 1139q0 -78 29 -144.5t80 -118t117.5 -80t144.5 -28.5 q76 0 144.5 28.5t118.5 80t80 118t30 144.5q0 76 -30 144.5t-80 118.5t-118.5 79.5t-144.5 29.5q-78 0 -144.5 -29.5t-117.5 -79.5t-80 -119t-29 -144zM1271 1102q0 -18 11 -33l121 -139l4 -4q0 -2 4 -6q11 -14 31 -16h5q17 0 32 11l323 279q16 14 18 32v4q0 16 -12 32 q-14 16 -32 17h-3q-17 0 -32 -11l-287 -246l-96 111q-14 16 -33.5 17t-36.5 -11q-17 -15 -17 -37z" />
<glyph unicode="v" horiz-adv-x="1699" d="M0 788q0 176 66.5 331t182.5 270.5t270.5 182t330.5 66.5q127 0 242.5 -34.5t214.5 -98.5q23 -10 38 -29.5t15 -45.5l2 -9v-5q0 -32 -22 -56q-24 -26 -60 -27q-23 -2 -41 7.5t-29 25.5l-2 -2q-78 47 -167 73.5t-187 26.5q-141 0 -265 -53t-217 -146.5t-146.5 -217 t-53.5 -265.5q0 -131 46 -246.5t128 -207.5h2l37 -39q16 -18 39 -35l285 -301h-2l143 -150l143 150h-4l285 293l6 6l72 76q4 4 8 6l8 4q78 92 123 203.5t45 240.5q0 84 -19.5 160t-54.5 145l4 5q-27 23 -26 59l-2 8v5q0 32 22 56q24 26 60 27q35 2 58.5 -19t27.5 -52 q94 -178 94 -388q0 -166 -58.5 -311t-162.5 -258l-6 -12l-545 -567q-8 -16 -15 -23q-21 -19 -47 -23q-6 -1 -12 -1q-19 0 -37 8q-16 6 -29 18q-2 2 -2 6l-559 582q-4 4 -5 7t-5 7q-102 115 -159.5 258.5t-57.5 308.5zM506 782q0 72 26.5 134.5t73.5 109.5t109.5 73.5 t134.5 26.5t134.5 -26.5t109.5 -73.5t73.5 -109.5t26.5 -134.5t-26.5 -133t-73.5 -108t-109.5 -74t-134.5 -27t-134.5 27t-109.5 74t-73.5 108t-26.5 133zM680 784q0 -72 49 -121t119 -49q72 0 121 49t49 121t-49 121t-121 49q-70 0 -119 -49t-49 -121z" />
<glyph unicode="w" horiz-adv-x="1955" d="M0 1180v12q0 8 1 15t1 16v30.5t2 30.5h6q14 76 54 140.5t98.5 112.5t131.5 74.5t152 26.5q92 0 173 -34.5t141.5 -95t95.5 -142.5t35 -174q0 -70 -20.5 -134.5t-58.5 -117.5t-89 -95t-113 -67q74 -176 204 -315t300 -225q55 111 160.5 177t236.5 66q92 0 173 -34.5 t141.5 -95t95.5 -141.5t35 -173q0 -115 -58 -217l-8 8q-20 -12 -43.5 -14t-46.5 12l-8 4q-29 16 -37 50q-2 10 -2 21q0 23 12 44l4 4l-6 4q14 37 15 82q0 55 -20.5 103t-57.5 85t-85 57.5t-104 20.5q-92 0 -160.5 -54t-93.5 -141q0 -23 -12 -40q-20 -34 -55 -42 q-11 -3 -21 -2q-24 0 -47 13l-6 4q-18 12 -29 29l-20 -9v2q-219 104 -383 281.5t-250 405.5h-2l8 12q-31 27 -30 67v9q0 35 22.5 59.5t56.5 28.5v2q47 8 88 30.5t72 57.5t48.5 80t17.5 94q0 55 -20.5 103t-57.5 85t-85 57.5t-103 20.5t-104.5 -20.5t-85.5 -57.5t-57.5 -85 t-21.5 -103q0 -4 1 -9t1 -10q0 -104 13.5 -191t31 -151.5t33.5 -108.5t25 -63q104 -254 292.5 -448.5t436.5 -306.5q16 -8 35.5 -17.5t46.5 -19.5q2 0 3 -1t3 -1q59 -23 145 -43.5t197 -36.5q37 -10 67 -10q8 0 14.5 1t14.5 1l4 -4q20 16 47 17t49 -13l9 -4q31 -19 40 -55 q3 -11 3 -21q0 -24 -15 -45q-2 -4 -6 -8l12 -13q-29 -12 -57 -18q-2 -2 -6 -2q-27 -6 -53.5 -10.5t-55.5 -4.5q-25 0 -48 3.5t-46 7.5q-199 23 -380 91t-337.5 175.5t-285.5 249t-220.5 309.5t-141.5 357.5t-52 394.5z" />
<glyph unicode="&#x2000;" horiz-adv-x="820" />
<glyph unicode="&#x2001;" horiz-adv-x="1640" />
<glyph unicode="&#x2002;" horiz-adv-x="820" />
<glyph unicode="&#x2003;" horiz-adv-x="1640" />
<glyph unicode="&#x2004;" horiz-adv-x="546" />
<glyph unicode="&#x2005;" horiz-adv-x="410" />
<glyph unicode="&#x2006;" horiz-adv-x="273" />
<glyph unicode="&#x2007;" horiz-adv-x="273" />
<glyph unicode="&#x2008;" horiz-adv-x="205" />
<glyph unicode="&#x2009;" horiz-adv-x="328" />
<glyph unicode="&#x200a;" horiz-adv-x="91" />
<glyph unicode="&#x202f;" horiz-adv-x="328" />
<glyph unicode="&#x205f;" horiz-adv-x="410" />
<glyph unicode="&#x25fc;" horiz-adv-x="1024" d="M0 0z" />
</font>
</defs>
</svg>
